<mxfile host="app.diagrams.net">
  <diagram name="ProjectMember Model Table ERD" id="projectMember-model-table-erd">
    <mxGraphModel dx="692" dy="402" grid="1" gridSize="10" guides="1" tooltips="1" connect="1" arrows="1" fold="1" page="1" pageScale="1" pageWidth="900" pageHeight="310" math="0" shadow="0">
      <root>
        <mxCell id="0" />
        <mxCell id="1" parent="0" />
        <!-- Tiêu đề lớn -->
        <mxCell id="bigTitle" value="PROJECTMEMBER MODEL - ERD TABLE" style="text;html=1;strokeColor=none;fillColor=none;align=center;fontSize=24;fontStyle=1;fontColor=#4472C4;" parent="1" vertex="1">
          <mxGeometry x="50" y="20" width="900" height="50" as="geometry" />
        </mxCell>
        <!-- Bảng ERD -->
        <mxCell id="projectMemberTable" value="" style="shape=table;startSize=0;container=1;collapsible=0;childLayout=tableLayout;fixedRows=1;rowLines=0;fontStyle=1;align=center;resizeLast=1;strokeColor=#000000;fillColor=#ffffff;" parent="1" vertex="1">
          <mxGeometry x="50" y="80" width="900" height="210" as="geometry" />
        </mxCell>
        <!-- Header -->
        <mxCell id="header" value="" style="shape=tableRow;horizontal=0;fillColor=#4472C4;strokeColor=#000000;" parent="projectMemberTable" vertex="1">
          <mxGeometry width="900" height="30" as="geometry" />
        </mxCell>
        <mxCell id="h1" value="Tên trường" style="shape=partialRectangle;connectable=0;fillColor=#4472C4;align=center;fontStyle=1;fontSize=12;fontColor=#ffffff;" parent="header" vertex="1"><mxGeometry width="150" height="30" as="geometry" /></mxCell>
        <mxCell id="h2" value="Kiểu dữ liệu" style="shape=partialRectangle;connectable=0;fillColor=#4472C4;align=center;fontStyle=1;fontSize=12;fontColor=#ffffff;" parent="header" vertex="1"><mxGeometry x="150" width="100" height="30" as="geometry" /></mxCell>
        <mxCell id="h3" value="Ràng buộc/Enum" style="shape=partialRectangle;connectable=0;fillColor=#4472C4;align=center;fontStyle=1;fontSize=12;fontColor=#ffffff;" parent="header" vertex="1"><mxGeometry x="250" width="200" height="30" as="geometry" /></mxCell>
        <mxCell id="h4" value="Giá trị mặc định" style="shape=partialRectangle;connectable=0;fillColor=#4472C4;align=center;fontStyle=1;fontSize=12;fontColor=#ffffff;" parent="header" vertex="1"><mxGeometry x="450" width="120" height="30" as="geometry" /></mxCell>
        <mxCell id="h5" value="Mô tả" style="shape=partialRectangle;connectable=0;fillColor=#4472C4;align=center;fontStyle=1;fontSize=12;fontColor=#ffffff;" parent="header" vertex="1"><mxGeometry x="570" width="330" height="30" as="geometry" /></mxCell>
        <!-- _id -->
        <mxCell id="row1" value="" style="shape=tableRow;horizontal=0;fillColor=#FFE6CC;strokeColor=#000000;" parent="projectMemberTable" vertex="1"><mxGeometry y="30" width="900" height="20" as="geometry" /></mxCell>
        <mxCell id="r1c1" value="_id" style="shape=partialRectangle;connectable=0;fillColor=#FFE6CC;align=left;fontStyle=1;" parent="row1" vertex="1"><mxGeometry width="150" height="20" as="geometry" /></mxCell>
        <mxCell id="r1c2" value="ObjectId" style="shape=partialRectangle;connectable=0;fillColor=#FFE6CC;align=left;" parent="row1" vertex="1"><mxGeometry x="150" width="100" height="20" as="geometry" /></mxCell>
        <mxCell id="r1c3" value="Primary Key" style="shape=partialRectangle;connectable=0;fillColor=#FFE6CC;align=left;" parent="row1" vertex="1"><mxGeometry x="250" width="200" height="20" as="geometry" /></mxCell>
        <mxCell id="r1c4" value="Tự động" style="shape=partialRectangle;connectable=0;fillColor=#FFE6CC;align=left;" parent="row1" vertex="1"><mxGeometry x="450" width="120" height="20" as="geometry" /></mxCell>
        <mxCell id="r1c5" value="Khóa chính MongoDB" style="shape=partialRectangle;connectable=0;fillColor=#FFE6CC;align=left;" parent="row1" vertex="1"><mxGeometry x="570" width="330" height="20" as="geometry" /></mxCell>
        <!-- project_id -->
        <mxCell id="row2" value="" style="shape=tableRow;horizontal=0;fillColor=#ffffff;strokeColor=#000000;" parent="projectMemberTable" vertex="1"><mxGeometry y="50" width="900" height="20" as="geometry" /></mxCell>
        <mxCell id="r2c1" value="project_id" style="shape=partialRectangle;connectable=0;fillColor=#ffffff;align=left;" parent="row2" vertex="1"><mxGeometry width="150" height="20" as="geometry" /></mxCell>
        <mxCell id="r2c2" value="ObjectId" style="shape=partialRectangle;connectable=0;fillColor=#ffffff;align=left;" parent="row2" vertex="1"><mxGeometry x="150" width="100" height="20" as="geometry" /></mxCell>
        <mxCell id="r2c3" value="ref: Project, required, unique (project_id+user_id)" style="shape=partialRectangle;connectable=0;fillColor=#ffffff;align=left;" parent="row2" vertex="1"><mxGeometry x="250" width="200" height="20" as="geometry" /></mxCell>
        <mxCell id="r2c4" value="" style="shape=partialRectangle;connectable=0;fillColor=#ffffff;align=left;" parent="row2" vertex="1"><mxGeometry x="450" width="120" height="20" as="geometry" /></mxCell>
        <mxCell id="r2c5" value="Dự án liên kết" style="shape=partialRectangle;connectable=0;fillColor=#ffffff;align=left;" parent="row2" vertex="1"><mxGeometry x="570" width="330" height="20" as="geometry" /></mxCell>
        <!-- user_id -->
        <mxCell id="row3" value="" style="shape=tableRow;horizontal=0;fillColor=#E6F3FF;strokeColor=#000000;" parent="projectMemberTable" vertex="1"><mxGeometry y="70" width="900" height="20" as="geometry" /></mxCell>
        <mxCell id="r3c1" value="user_id" style="shape=partialRectangle;connectable=0;fillColor=#E6F3FF;align=left;" parent="row3" vertex="1"><mxGeometry width="150" height="20" as="geometry" /></mxCell>
        <mxCell id="r3c2" value="ObjectId" style="shape=partialRectangle;connectable=0;fillColor=#E6F3FF;align=left;" parent="row3" vertex="1"><mxGeometry x="150" width="100" height="20" as="geometry" /></mxCell>
        <mxCell id="r3c3" value="ref: User, required, unique (project_id+user_id)" style="shape=partialRectangle;connectable=0;fillColor=#E6F3FF;align=left;" parent="row3" vertex="1"><mxGeometry x="250" width="200" height="20" as="geometry" /></mxCell>
        <mxCell id="r3c4" value="" style="shape=partialRectangle;connectable=0;fillColor=#E6F3FF;align=left;" parent="row3" vertex="1"><mxGeometry x="450" width="120" height="20" as="geometry" /></mxCell>
        <mxCell id="r3c5" value="Thành viên dự án" style="shape=partialRectangle;connectable=0;fillColor=#E6F3FF;align=left;" parent="row3" vertex="1"><mxGeometry x="570" width="330" height="20" as="geometry" /></mxCell>
        <!-- role_in_project -->
        <mxCell id="row4" value="" style="shape=tableRow;horizontal=0;fillColor=#ffffff;strokeColor=#000000;" parent="projectMemberTable" vertex="1"><mxGeometry y="90" width="900" height="20" as="geometry" /></mxCell>
        <mxCell id="r4c1" value="role_in_project" style="shape=partialRectangle;connectable=0;fillColor=#ffffff;align=left;" parent="row4" vertex="1"><mxGeometry width="150" height="20" as="geometry" /></mxCell>
        <mxCell id="r4c2" value="String" style="shape=partialRectangle;connectable=0;fillColor=#ffffff;align=left;" parent="row4" vertex="1"><mxGeometry x="150" width="100" height="20" as="geometry" /></mxCell>
        <mxCell id="r4c3" value="enum: Quản trị viên, Biên tập viên, Người xem; default: Người xem" style="shape=partialRectangle;connectable=0;fillColor=#ffffff;align=left;" parent="row4" vertex="1"><mxGeometry x="250" width="200" height="20" as="geometry" /></mxCell>
        <mxCell id="r4c4" value="Người xem" style="shape=partialRectangle;connectable=0;fillColor=#ffffff;align=left;" parent="row4" vertex="1"><mxGeometry x="450" width="120" height="20" as="geometry" /></mxCell>
        <mxCell id="r4c5" value="Vai trò trong dự án" style="shape=partialRectangle;connectable=0;fillColor=#ffffff;align=left;" parent="row4" vertex="1"><mxGeometry x="570" width="330" height="20" as="geometry" /></mxCell>
        <!-- kanban_id -->
        <mxCell id="row5" value="" style="shape=tableRow;horizontal=0;fillColor=#E6F3FF;strokeColor=#000000;" parent="projectMemberTable" vertex="1"><mxGeometry y="110" width="900" height="20" as="geometry" /></mxCell>
        <mxCell id="r5c1" value="kanban_id" style="shape=partialRectangle;connectable=0;fillColor=#E6F3FF;align=left;" parent="row5" vertex="1"><mxGeometry width="150" height="20" as="geometry" /></mxCell>
        <mxCell id="r5c2" value="ObjectId" style="shape=partialRectangle;connectable=0;fillColor=#E6F3FF;align=left;" parent="row5" vertex="1"><mxGeometry x="150" width="100" height="20" as="geometry" /></mxCell>
        <mxCell id="r5c3" value="ref: Kanban" style="shape=partialRectangle;connectable=0;fillColor=#E6F3FF;align=left;" parent="row5" vertex="1"><mxGeometry x="250" width="200" height="20" as="geometry" /></mxCell>
        <mxCell id="r5c4" value="" style="shape=partialRectangle;connectable=0;fillColor=#E6F3FF;align=left;" parent="row5" vertex="1"><mxGeometry x="450" width="120" height="20" as="geometry" /></mxCell>
        <mxCell id="r5c5" value="Bảng Kanban liên kết" style="shape=partialRectangle;connectable=0;fillColor=#E6F3FF;align=left;" parent="row5" vertex="1"><mxGeometry x="570" width="330" height="20" as="geometry" /></mxCell>
        <!-- role_in_kanban -->
        <mxCell id="row6" value="" style="shape=tableRow;horizontal=0;fillColor=#ffffff;strokeColor=#000000;" parent="projectMemberTable" vertex="1"><mxGeometry y="130" width="900" height="20" as="geometry" /></mxCell>
        <mxCell id="r6c1" value="role_in_kanban" style="shape=partialRectangle;connectable=0;fillColor=#ffffff;align=left;" parent="row6" vertex="1"><mxGeometry width="150" height="20" as="geometry" /></mxCell>
        <mxCell id="r6c2" value="String" style="shape=partialRectangle;connectable=0;fillColor=#ffffff;align=left;" parent="row6" vertex="1"><mxGeometry x="150" width="100" height="20" as="geometry" /></mxCell>
        <mxCell id="r6c3" value="enum: Quản trị viên, Biên tập viên, Người xem; default: Người xem" style="shape=partialRectangle;connectable=0;fillColor=#ffffff;align=left;" parent="row6" vertex="1"><mxGeometry x="250" width="200" height="20" as="geometry" /></mxCell>
        <mxCell id="r6c4" value="Người xem" style="shape=partialRectangle;connectable=0;fillColor=#ffffff;align=left;" parent="row6" vertex="1"><mxGeometry x="450" width="120" height="20" as="geometry" /></mxCell>
        <mxCell id="r6c5" value="Vai trò trong Kanban" style="shape=partialRectangle;connectable=0;fillColor=#ffffff;align=left;" parent="row6" vertex="1"><mxGeometry x="570" width="330" height="20" as="geometry" /></mxCell>
        <!-- joined_at -->
        <mxCell id="row7" value="" style="shape=tableRow;horizontal=0;fillColor=#E6F3FF;strokeColor=#000000;" parent="projectMemberTable" vertex="1"><mxGeometry y="150" width="900" height="20" as="geometry" /></mxCell>
        <mxCell id="r7c1" value="joined_at" style="shape=partialRectangle;connectable=0;fillColor=#E6F3FF;align=left;" parent="row7" vertex="1"><mxGeometry width="150" height="20" as="geometry" /></mxCell>
        <mxCell id="r7c2" value="Date" style="shape=partialRectangle;connectable=0;fillColor=#E6F3FF;align=left;" parent="row7" vertex="1"><mxGeometry x="150" width="100" height="20" as="geometry" /></mxCell>
        <mxCell id="r7c3" value="default: Date.now" style="shape=partialRectangle;connectable=0;fillColor=#E6F3FF;align=left;" parent="row7" vertex="1"><mxGeometry x="250" width="200" height="20" as="geometry" /></mxCell>
        <mxCell id="r7c4" value="Date.now" style="shape=partialRectangle;connectable=0;fillColor=#E6F3FF;align=left;" parent="row7" vertex="1"><mxGeometry x="450" width="120" height="20" as="geometry" /></mxCell>
        <mxCell id="r7c5" value="Ngày tham gia" style="shape=partialRectangle;connectable=0;fillColor=#E6F3FF;align=left;" parent="row7" vertex="1"><mxGeometry x="570" width="330" height="20" as="geometry" /></mxCell>
        <!-- is_active -->
        <mxCell id="row8" value="" style="shape=tableRow;horizontal=0;fillColor=#ffffff;strokeColor=#000000;" parent="projectMemberTable" vertex="1"><mxGeometry y="170" width="900" height="20" as="geometry" /></mxCell>
        <mxCell id="r8c1" value="is_active" style="shape=partialRectangle;connectable=0;fillColor=#ffffff;align=left;" parent="row8" vertex="1"><mxGeometry width="150" height="20" as="geometry" /></mxCell>
        <mxCell id="r8c2" value="Boolean" style="shape=partialRectangle;connectable=0;fillColor=#ffffff;align=left;" parent="row8" vertex="1"><mxGeometry x="150" width="100" height="20" as="geometry" /></mxCell>
        <mxCell id="r8c3" value="default: true" style="shape=partialRectangle;connectable=0;fillColor=#ffffff;align=left;" parent="row8" vertex="1"><mxGeometry x="250" width="200" height="20" as="geometry" /></mxCell>
        <mxCell id="r8c4" value="true" style="shape=partialRectangle;connectable=0;fillColor=#ffffff;align=left;" parent="row8" vertex="1"><mxGeometry x="450" width="120" height="20" as="geometry" /></mxCell>
        <mxCell id="r8c5" value="Còn hoạt động" style="shape=partialRectangle;connectable=0;fillColor=#ffffff;align=left;" parent="row8" vertex="1"><mxGeometry x="570" width="330" height="20" as="geometry" /></mxCell>
        <!-- approval_status -->
        <mxCell id="row9" value="" style="shape=tableRow;horizontal=0;fillColor=#E6F3FF;strokeColor=#000000;" parent="projectMemberTable" vertex="1"><mxGeometry y="190" width="900" height="20" as="geometry" /></mxCell>
        <mxCell id="r9c1" value="approval_status" style="shape=partialRectangle;connectable=0;fillColor=#E6F3FF;align=left;" parent="row9" vertex="1"><mxGeometry width="150" height="20" as="geometry" /></mxCell>
        <mxCell id="r9c2" value="Boolean" style="shape=partialRectangle;connectable=0;fillColor=#E6F3FF;align=left;" parent="row9" vertex="1"><mxGeometry x="150" width="100" height="20" as="geometry" /></mxCell>
        <mxCell id="r9c3" value="default: false" style="shape=partialRectangle;connectable=0;fillColor=#E6F3FF;align=left;" parent="row9" vertex="1"><mxGeometry x="250" width="200" height="20" as="geometry" /></mxCell>
        <mxCell id="r9c4" value="false" style="shape=partialRectangle;connectable=0;fillColor=#E6F3FF;align=left;" parent="row9" vertex="1"><mxGeometry x="450" width="120" height="20" as="geometry" /></mxCell>
        <mxCell id="r9c5" value="Trạng thái phê duyệt" style="shape=partialRectangle;connectable=0;fillColor=#E6F3FF;align=left;" parent="row9" vertex="1"><mxGeometry x="570" width="330" height="20" as="geometry" /></mxCell>
        <!-- createdAt -->
        <mxCell id="row10" value="" style="shape=tableRow;horizontal=0;fillColor=#ffffff;strokeColor=#000000;" parent="projectMemberTable" vertex="1"><mxGeometry y="210" width="900" height="20" as="geometry" /></mxCell>
        <mxCell id="r10c1" value="createdAt" style="shape=partialRectangle;connectable=0;fillColor=#ffffff;align=left;" parent="row10" vertex="1"><mxGeometry width="150" height="20" as="geometry" /></mxCell>
        <mxCell id="r10c2" value="Date" style="shape=partialRectangle;connectable=0;fillColor=#ffffff;align=left;" parent="row10" vertex="1"><mxGeometry x="150" width="100" height="20" as="geometry" /></mxCell>
        <mxCell id="r10c3" value="auto (timestamps)" style="shape=partialRectangle;connectable=0;fillColor=#ffffff;align=left;" parent="row10" vertex="1"><mxGeometry x="250" width="200" height="20" as="geometry" /></mxCell>
        <mxCell id="r10c4" value="Date.now" style="shape=partialRectangle;connectable=0;fillColor=#ffffff;align=left;" parent="row10" vertex="1"><mxGeometry x="450" width="120" height="20" as="geometry" /></mxCell>
        <mxCell id="r10c5" value="Ngày tạo bản ghi" style="shape=partialRectangle;connectable=0;fillColor=#ffffff;align=left;" parent="row10" vertex="1"><mxGeometry x="570" width="330" height="20" as="geometry" /></mxCell>
        <!-- updatedAt -->
        <mxCell id="row11" value="" style="shape=tableRow;horizontal=0;fillColor=#E6F3FF;strokeColor=#000000;" parent="projectMemberTable" vertex="1"><mxGeometry y="230" width="900" height="20" as="geometry" /></mxCell>
        <mxCell id="r11c1" value="updatedAt" style="shape=partialRectangle;connectable=0;fillColor=#E6F3FF;align=left;" parent="row11" vertex="1"><mxGeometry width="150" height="20" as="geometry" /></mxCell>
        <mxCell id="r11c2" value="Date" style="shape=partialRectangle;connectable=0;fillColor=#E6F3FF;align=left;" parent="row11" vertex="1"><mxGeometry x="150" width="100" height="20" as="geometry" /></mxCell>
        <mxCell id="r11c3" value="auto (timestamps)" style="shape=partialRectangle;connectable=0;fillColor=#E6F3FF;align=left;" parent="row11" vertex="1"><mxGeometry x="250" width="200" height="20" as="geometry" /></mxCell>
        <mxCell id="r11c4" value="Date.now" style="shape=partialRectangle;connectable=0;fillColor=#E6F3FF;align=left;" parent="row11" vertex="1"><mxGeometry x="450" width="120" height="20" as="geometry" /></mxCell>
        <mxCell id="r11c5" value="Ngày cập nhật bản ghi" style="shape=partialRectangle;connectable=0;fillColor=#E6F3FF;align=left;" parent="row11" vertex="1"><mxGeometry x="570" width="330" height="20" as="geometry" /></mxCell>
      </root>
    </mxGraphModel>
  </diagram>
</mxfile>
